<?xml version="1.0" standalone="no"?>
<!DOCTYPE svg PUBLIC "-//W3C//DTD SVG 20010904//EN"
 "http://www.w3.org/TR/2001/REC-SVG-20010904/DTD/svg10.dtd">
<svg version="1.0" xmlns="http://www.w3.org/2000/svg"
 width="200.000000pt" height="200.000000pt" viewBox="0 0 200.000000 200.000000"
 preserveAspectRatio="xMidYMid meet">

<g transform="translate(0.000000,200.000000) scale(0.100000,-0.100000)"
fill="#000000" stroke="none">
<path d="M516 1778 c-32 -29 -280 -510 -302 -585 -37 -126 1 -272 96 -368 l49
-50 -39 -110 c-22 -61 -44 -120 -50 -132 l-9 -22 -72 24 c-108 37 -145 32
-174 -25 -22 -43 -18 -76 13 -109 39 -43 486 -206 537 -197 44 9 75 48 75 96
0 55 -29 85 -108 110 -37 13 -70 25 -74 29 -3 3 15 64 41 136 l47 130 70 8
c86 9 182 54 239 112 56 58 89 131 116 258 13 59 26 107 29 107 3 0 14 -39 24
-87 25 -124 49 -187 92 -243 67 -87 158 -137 273 -148 l65 -7 47 -130 c26 -72
44 -133 41 -136 -4 -4 -37 -16 -74 -29 -79 -25 -108 -55 -108 -110 0 -48 31
-87 75 -96 27 -5 80 11 272 80 274 100 300 117 290 190 -7 48 -44 86 -86 86
-15 0 -60 -11 -100 -25 l-72 -24 -9 22 c-6 12 -28 71 -49 131 l-40 110 50 53
c96 101 132 240 95 366 -22 77 -270 556 -302 585 -14 12 -37 22 -53 22 -15 0
-118 -33 -229 -74 l-202 -74 -202 74 c-111 41 -214 74 -229 74 -16 0 -39 -10
-53 -22z m229 -247 c59 -22 108 -41 110 -43 3 -3 -34 -170 -39 -175 -1 -2 -81
26 -264 92 -9 3 -1 28 28 85 22 44 44 80 49 80 6 0 58 -18 116 -39z m675 -41
c29 -57 37 -82 28 -85 -187 -67 -263 -94 -265 -92 -1 2 -11 42 -21 89 l-20 87
42 16 c22 8 70 26 106 39 36 14 71 25 77 26 7 0 31 -36 53 -80z"/>
</g>
</svg>
